<?xml version="1.0" encoding="UTF-8" standalone="no"?>
<svg
   id="icon-wagtail-icon"
   viewBox="0 0 16 16"
   version="1.1"
   sodipodi:docname="waggylabs-logo.svg"
   inkscape:version="1.1 (c68e22c387, 2021-05-23)"
   xmlns:inkscape="http://www.inkscape.org/namespaces/inkscape"
   xmlns:sodipodi="http://sodipodi.sourceforge.net/DTD/sodipodi-0.dtd"
   xmlns="http://www.w3.org/2000/svg"
   xmlns:svg="http://www.w3.org/2000/svg">
  <defs
     id="defs7" />
  <sodipodi:namedview
     id="namedview5"
     pagecolor="#505050"
     bordercolor="#eeeeee"
     borderopacity="1"
     inkscape:pageshadow="0"
     inkscape:pageopacity="0"
     inkscape:pagecheckerboard="0"
     showgrid="false"
     width="400px"
     inkscape:zoom="42.25"
     inkscape:cx="8.9467456"
     inkscape:cy="9.1005917"
     inkscape:window-width="1920"
     inkscape:window-height="1017"
     inkscape:window-x="-8"
     inkscape:window-y="-8"
     inkscape:window-maximized="1"
     inkscape:current-layer="icon-wagtail-icon" />
  <path
     d="M12.324 2.539c0 0.152-0.114 0.303-0.303 0.303-0.152 0-0.303-0.152-0.303-0.303 0-0.19 0.152-0.303 0.303-0.303 0.19 0 0.303 0.114 0.303 0.303zM12.437 5.421c0 0-0.417-1.896-2.92-1.403-0.228-0.872-0.19-1.517 0.341-2.086 0.759-0.796 1.972-0.379 1.972-0.379v-0.645c-0.417-0.19-0.834-0.228-1.252-0.228-1.631 0-2.541 1.214-2.92 2.048l-4.513 8.306 1.289-0.228-2.351 4.513 1.631-0.303 1.252-3.527c3.527 0 8.078-1.289 7.471-6.068zM13.954 3.828l-0.986-0.986-0.796 0.986zM5.535 10.465c0 0 0.152-0.038 0.341-0.076 0.19-0.076 0.493-0.114 0.834-0.228 0.19-0.038 0.379-0.114 0.569-0.152 0.19-0.076 0.417-0.152 0.607-0.228 0.228-0.114 0.417-0.19 0.607-0.303 0.228-0.114 0.417-0.265 0.607-0.379 0.038-0.038 0.114-0.076 0.152-0.114l0.114-0.114c0.114-0.114 0.19-0.19 0.265-0.265s0.152-0.19 0.228-0.265c0.038-0.038 0.076-0.076 0.114-0.152l0.038-0.076 0.038-0.038c0.038-0.076 0.076-0.114 0.076-0.152 0.038-0.038 0.076-0.114 0.076-0.152 0.038-0.038 0.038-0.038 0.038-0.076 0.038 0 0.038-0.038 0.038-0.076 0.038-0.038 0.038-0.076 0.076-0.114 0.038-0.114 0.076-0.19 0.114-0.303 0-0.076 0.038-0.152 0.076-0.265 0-0.076 0.038-0.152 0.038-0.228s0.038-0.152 0.038-0.228c0-0.076 0.038-0.152 0.038-0.228 0-0.038 0-0.114 0-0.152 0-0.19 0.038-0.341 0.038-0.341l0.19 0.038c0 0-0.038 0.114-0.038 0.303 0 0.076-0.038 0.114-0.038 0.19s0 0.152-0.038 0.19c0 0.076 0 0.152-0.038 0.265 0 0.076-0.038 0.152-0.038 0.228-0.038 0.114-0.076 0.19-0.114 0.303-0.038 0.076-0.076 0.19-0.114 0.265 0 0.038-0.038 0.114-0.076 0.152 0 0.038 0 0.038-0.038 0.076 0 0.038 0 0.038-0.038 0.076 0 0.038-0.038 0.076-0.076 0.152-0.038 0.038-0.038 0.076-0.076 0.114s-0.038 0.076-0.038 0.076l-0.076 0.076c-0.038 0.038-0.076 0.114-0.114 0.152-0.076 0.076-0.152 0.19-0.228 0.265s-0.152 0.152-0.265 0.265l-0.114 0.114c-0.076 0.038-0.114 0.038-0.152 0.076-0.228 0.152-0.417 0.303-0.645 0.417-0.19 0.076-0.417 0.19-0.607 0.265-0.228 0.076-0.417 0.152-0.645 0.228-0.19 0.038-0.379 0.114-0.569 0.152-0.341 0.076-0.645 0.152-0.834 0.19s-0.341 0.076-0.341 0.076z"
     id="path2" />
  <path
     style="fill:none;stroke:#000000;stroke-width:0.5;stroke-linecap:butt;stroke-linejoin:miter;stroke-miterlimit:4;stroke-dasharray:none;stroke-opacity:1"
     d="m 5.5621302,13.514793 0.4456834,-0.385662 0.8530346,1.610908 1.7608936,-3.43741 h 5.0350632 v 0.626365"
     id="path1343"
     sodipodi:nodetypes="cccccc" />
  <text
     xml:space="preserve"
     style="font-style:normal;font-weight:normal;font-size:4.66667px;line-height:1.25;font-family:sans-serif;fill:#000000;fill-opacity:1;stroke:none"
     x="7.5739646"
     y="15.235253"
     id="text4879"><tspan
       sodipodi:role="line"
       id="tspan4877"
       x="7.5739646"
       y="15.235253"
       style="font-style:italic;font-variant:normal;font-weight:normal;font-stretch:normal;font-size:4.66667px;font-family:'Times New Roman';-inkscape-font-specification:'Times New Roman,  Italic'">e</tspan></text>
  <text
     xml:space="preserve"
     style="font-style:normal;font-weight:normal;font-size:40px;line-height:1.25;font-family:sans-serif;fill:#000000;fill-opacity:1;stroke:none"
     x="10.272189"
     y="12.213018"
     id="text19187"><tspan
       sodipodi:role="line"
       id="tspan19185"></tspan></text>
  <text
     xml:space="preserve"
     style="font-size:3.33333px;line-height:1.25;font-family:sans-serif"
     x="9.822485"
     y="13.704142"
     id="text33465"><tspan
       sodipodi:role="line"
       id="tspan33463"
       x="9.822485"
       y="13.704142"
       style="font-style:italic;font-variant:normal;font-weight:normal;font-stretch:normal;font-size:3.33333px;font-family:'Times New Roman';-inkscape-font-specification:'Times New Roman,  Italic'">iπ</tspan></text>
  <text
     xml:space="preserve"
     style="font-size:4.66667px;line-height:1.25;font-family:sans-serif"
     x="12.307693"
     y="15.289941"
     id="text45987"><tspan
       sodipodi:role="line"
       id="tspan45985"
       x="12.307693"
       y="15.289941"
       style="font-style:normal;font-variant:normal;font-weight:normal;font-stretch:normal;font-size:4.66667px;font-family:Arial;-inkscape-font-specification:Arial">!</tspan></text>
</svg>
