<?xml version="1.0" encoding="UTF-8"?>
<svg id="icon-wagtail-icon" width="11.871" height="14.639" version="1.1" viewBox="0 0 11.871 14.639" xmlns="http://www.w3.org/2000/svg">
 <path d="m10.241 1.859c0 0.152-0.114 0.303-0.303 0.303-0.152 0-0.303-0.152-0.303-0.303 0-0.19 0.152-0.303 0.303-0.303 0.19 0 0.303 0.114 0.303 0.303zm0.113 2.882s-0.417-1.896-2.92-1.403c-0.228-0.872-0.19-1.517 0.341-2.086 0.759-0.796 1.972-0.379 1.972-0.379v-0.645c-0.417-0.19-0.834-0.228-1.252-0.228-1.631 0-2.541 1.214-2.92 2.048l-4.513 8.306 1.289-0.228-2.351 4.513 1.631-0.303 1.252-3.527c3.527 0 8.078-1.289 7.471-6.068zm1.517-1.593-0.986-0.986-0.796 0.986zm-8.419 6.637s0.152-0.038 0.341-0.076c0.19-0.076 0.493-0.114 0.834-0.228 0.19-0.038 0.379-0.114 0.569-0.152 0.19-0.076 0.417-0.152 0.607-0.228 0.228-0.114 0.417-0.19 0.607-0.303 0.228-0.114 0.417-0.265 0.607-0.379 0.038-0.038 0.114-0.076 0.152-0.114l0.379-0.379c0.075-0.075 0.152-0.19 0.228-0.265 0.038-0.038 0.076-0.076 0.114-0.152l0.038-0.076 0.038-0.038c0.038-0.076 0.076-0.114 0.076-0.152 0.038-0.038 0.076-0.114 0.076-0.152 0.038-0.038 0.038-0.038 0.038-0.076 0.038 0 0.038-0.038 0.038-0.076 0.038-0.038 0.038-0.076 0.076-0.114 0.038-0.114 0.076-0.19 0.114-0.303 0-0.076 0.038-0.152 0.076-0.265 0-0.076 0.038-0.152 0.038-0.228s0.038-0.152 0.038-0.228 0.038-0.152 0.038-0.228v-0.152c0-0.19 0.038-0.341 0.038-0.341l0.19 0.038s-0.038 0.114-0.038 0.303c0 0.076-0.038 0.114-0.038 0.19s0 0.152-0.038 0.19c0 0.076 0 0.152-0.038 0.265 0 0.076-0.038 0.152-0.038 0.228-0.038 0.114-0.076 0.19-0.114 0.303-0.038 0.076-0.076 0.19-0.114 0.265 0 0.038-0.038 0.114-0.076 0.152 0 0.038 0 0.038-0.038 0.076 0 0.038 0 0.038-0.038 0.076 0 0.038-0.038 0.076-0.076 0.152-0.038 0.038-0.038 0.076-0.076 0.114s-0.038 0.076-0.038 0.076l-0.076 0.076c-0.038 0.038-0.076 0.114-0.114 0.152-0.076 0.076-0.152 0.19-0.228 0.265s-0.152 0.152-0.265 0.265l-0.114 0.114c-0.076 0.038-0.114 0.038-0.152 0.076-0.228 0.152-0.417 0.303-0.645 0.417-0.19 0.076-0.417 0.19-0.607 0.265-0.228 0.076-0.417 0.152-0.645 0.228-0.19 0.038-0.379 0.114-0.569 0.152-0.341 0.076-0.645 0.152-0.834 0.19s-0.341 0.076-0.341 0.076z"/>
 <path d="m4.25 13 0.5-0.5 1 1.75 0.98438-3.5859 4.9648-0.0039v0.55469" fill="none" stroke="#000" stroke-width=".3"/>
 <g fill="#000000" font-family="sans-serif">
  <text x="6.2739105" y="14.562189" font-size="4.3599px" stroke-width="1.09" style="line-height:1.25" xml:space="preserve"><tspan x="6.2739105" y="14.562189" font-family="'Times New Roman'" font-size="4.3599px" font-style="italic" stroke-width="1.09">e</tspan></text>
  <text x="8.2578125" y="12.59375" font-size="2.6667px" style="line-height:1.25" xml:space="preserve"><tspan x="8.2578125" y="12.59375" font-family="'Times New Roman'" font-size="2.6667px" font-style="italic">iπ</tspan></text>
  <text x="10.281724" y="14.616877" font-size="4.3599px" stroke-width="1.09" style="line-height:1.25" xml:space="preserve"><tspan x="10.281724" y="14.616877" font-family="'Times New Roman'" font-size="4.3599px" font-style="italic" stroke-width="1.09"><tspan font-family="Arial" font-style="normal" stroke-width="1.09">!</tspan></tspan></text>
 </g>
</svg>
